<?xml version="1.0" encoding="UTF-8" standalone="no"?>
<!DOCTYPE svg PUBLIC "-//W3C//DTD SVG 1.1//EN" "http://www.w3.org/Graphics/SVG/1.1/DTD/svg11.dtd">
<svg width="100%" height="100%" viewBox="0 0 512 512" version="1.1" xmlns="http://www.w3.org/2000/svg" xmlns:xlink="http://www.w3.org/1999/xlink" xml:space="preserve" xmlns:serif="http://www.serif.com/" style="fill-rule:evenodd;clip-rule:evenodd;stroke-linejoin:round;stroke-miterlimit:2;">
    <path d="M483.738,0C499.34,-0.004 511.992,12.641 512,28.238L512,483.75C511.996,499.355 499.344,512.004 483.738,512L353.5,512L353.5,314L420.25,314L430.25,236.5L353.5,236.5L353.5,187.141C353.5,164.754 359.715,149.5 391.816,149.5L432.5,149.5L432.5,80.371C425.422,79.43 401.137,77.324 372.879,77.324C313.879,77.324 273.5,113.324 273.5,179.465L273.5,236.5L207,236.5L207,314L273.5,314L273.5,512L28.262,512C12.66,512.004 0.008,499.359 0,483.762L0,28.262C-0.004,12.66 12.641,0.008 28.238,0L483.738,0Z" style="fill:white;fill-rule:nonzero;"/>
</svg>
